<?xml version="1.0" encoding="UTF-8"?>
<svg xmlns="http://www.w3.org/2000/svg" width="1024" height="1024" viewBox="0 0 64 64" role="img">
  <title>Symmetric four-point shield outline for 61072129</title>
  <desc>Outer half contour key points: top center (32.0, 0.75), right upper (58.5, 7.75), right lower (58.5, 34.75), bottom center (32.0, 63.25). Inner white frame key points: top center (32.0, 3.6), right upper (55.65, 9.65), right lower (55.65, 36.35), bottom center (32.0, 60.4). The UnifrakturMaguntia F is fitted inside target box (10.350000000000001, 5.6, 53.65, 58.4), leaving about 1.0 SVG unit from the inner edge of the white frame, then scaled by 0.85 around the target-box center.</desc>
  <path id="shield-silhouette" d="M 32.000 0.750 C 38.400 3.350 45.250 6.900 58.500 7.750 L 58.500 34.750 C 58.500 48.400 46.200 58.250 32.000 63.250 C 17.800 58.250 5.500 48.400 5.500 34.750 L 5.500 7.750 C 18.750 6.900 25.600 3.350 32.000 0.750 Z" fill="#373737"/>
  <path id="letter-f" d="M1358 572Q1349 563 1339 563Q1324 563 1311.5 581.5Q1299 600 1290 610Q1206 694 1145 644Q1133 636 1141 622Q1183 557 1211 498Q1271 367 1253.5 234.0Q1236 101 1163.0 -5.0Q1090 -111 973.5 -178.5Q857 -246 719 -246Q542 -246 414.0 -162.5Q286 -79 275 77L293 159Q302 200 315 240Q351 343 306 379Q281 399 249 399Q219 400 219.0 423.5Q219 447 249 448Q274 448 303.0 442.0Q332 436 357 432Q464 409 523.0 345.5Q582 282 541 138Q502 5 530.5 -87.0Q559 -179 715 -188Q852 -194 928.0 -111.0Q1004 -28 1024 107Q1038 201 983.0 317.0Q928 433 836 550Q627 814 671.0 925.5Q715 1037 865 1170V1171Q870 1176 881 1176Q906 1176 906 1152Q906 1142 897 1133Q812 1043 888 952Q942 886 994.5 821.5Q1047 757 1092 694Q1105 678 1119 693Q1161 746 1204.0 798.5Q1247 851 1291 905Q1309 927 1330 910Q1366 880 1400.5 849.5Q1435 819 1471 789Q1480 782 1491.0 772.0Q1502 762 1502 751Q1502 742 1488.5 727.5Q1475 713 1464 701ZM678 583Q479 494 290 573Q99 653 67.0 883.0Q35 1113 204.0 1308.0Q373 1503 675 1503Q817 1503 961.0 1456.0Q1105 1409 1252 1331Q1349 1280 1442 1312Q1462 1320 1472 1323Q1494 1327 1499.5 1311.0Q1505 1295 1481 1276Q1409 1224 1336.0 1173.5Q1263 1123 1193 1069Q1168 1049 1138 1068Q1048 1134 889.5 1206.0Q731 1278 569 1278Q379 1278 258.5 1170.0Q138 1062 143.5 894.5Q149 727 290.0 634.0Q431 541 651 627Q669 634 681.0 630.5Q693 627 697.5 618.5Q702 610 697.5 599.5Q693 589 678 583Z" transform="translate(12.0154 48.0628) scale(0.025557 -0.025557)" fill="#ffffff"/>
  <path id="inner-shield-frame" d="M 32.000 3.600 C 37.700 5.450 44.100 8.950 55.650 9.650 L 55.650 36.350 C 55.650 46.150 44.700 56.650 32.000 60.400 C 19.300 56.650 8.350 46.150 8.350 36.350 L 8.350 9.650 C 19.900 8.950 26.300 5.450 32.000 3.600 Z" fill="none" stroke="#ffffff" stroke-width="2.00" stroke-linejoin="round" stroke-linecap="round"/>
</svg>
